# xmcd
#
# Track frame offsets:
#	150
#	15099
#	28886
#	44750
#	62609
#	80903
#	98078
#	110557
#	126889
#	140202
#
# Disc length: 2071 seconds
#
# Revision: 2
# Processed by: cddbd v1.5.2PL0 Copyright (c) Steve Scherf et al.
# Submitted via: audiograbber 1.83.01
#
DISCID=8c08150a
DTITLE=Tracy Lawrence - The Rock
DYEAR=2009
DGENRE=Country
TTITLE0=Dear Lord
TTITLE1=Every Prayer
TTITLE2=I'm Done
TTITLE3=The Book You Never Read
TTITLE4=The Rock
TTITLE5=Somebody Who Would Die For You
TTITLE6=Jesus Come Talk To Your Children
TTITLE7=I Know Where Heaven Is
TTITLE8=Up To Him
TTITLE9=Say A Prayer
EXTD=
EXTT0=
EXTT1=
EXTT2=
EXTT3=
EXTT4=
EXTT5=
EXTT6=
EXTT7=
EXTT8=
EXTT9=
PLAYORDER=
